<svg xmlns="http://www.w3.org/2000/svg" viewBox="0 0 64 64" role="img" aria-label="Digital Wall Calendar Favicon">
  <defs>
    <linearGradient id="bg" x1="0" y1="0" x2="1" y2="1">
      <stop offset="0%" stop-color="#0ea5e9"/>
      <stop offset="100%" stop-color="#2563eb"/>
    </linearGradient>
    <linearGradient id="bar" x1="0" y1="0" x2="1" y2="0">
      <stop offset="0%" stop-color="#f97316"/>
      <stop offset="100%" stop-color="#ef4444"/>
    </linearGradient>
  </defs>

  <rect x="4" y="4" width="56" height="56" rx="14" fill="url(#bg)"/>
  <rect x="12" y="16" width="40" height="36" rx="8" fill="#ffffff" opacity="0.97"/>
  <rect x="12" y="16" width="40" height="10" rx="8" fill="url(#bar)"/>

  <circle cx="21" cy="14" r="3" fill="#ffffff"/>
  <circle cx="43" cy="14" r="3" fill="#ffffff"/>

  <g fill="#2563eb" opacity="0.9">
    <rect x="18" y="31" width="7" height="7" rx="2"/>
    <rect x="29" y="31" width="7" height="7" rx="2"/>
    <rect x="40" y="31" width="7" height="7" rx="2"/>
    <rect x="18" y="42" width="7" height="7" rx="2"/>
    <rect x="29" y="42" width="7" height="7" rx="2"/>
    <rect x="40" y="42" width="7" height="7" rx="2"/>
  </g>

  <rect x="29" y="31" width="7" height="18" rx="2" fill="#10b981"/>
</svg>
